<?xml version="1.0" encoding="UTF-8"?>
<svg version="1.1" xmlns="http://www.w3.org/2000/svg" width="392" height="512">
<path d="M0 0 C-1.77268147 4.07512982 -4.47566609 7.46904653 -7.125 11 C-11.96753873 17.53395933 -16.5633518 24.18209994 -21 31 C-21.82644296 32.25025124 -22.65328911 33.50023603 -23.48046875 34.75 C-53.52423548 80.3801755 -77.87688604 129.74177144 -94 182 C-94.41330566 183.33708008 -94.41330566 183.33708008 -94.83496094 184.70117188 C-108.39869033 229.24826973 -122.21804131 289.34646932 -99.5625 332.9375 C-93.3215602 343.91522075 -85.09271618 350.89444821 -73 355 C-66.6586744 356.74264212 -60.49301966 357.38088445 -53.9375 357.625 C-53.07189453 357.66367187 -52.20628906 357.70234375 -51.31445312 357.7421875 C-49.20993641 357.83520481 -47.1049991 357.91862669 -45 358 C-54.64707088 368.44215914 -72.33326338 373.37954561 -86.33666992 374.12426758 C-105.38204377 374.69318053 -120.29259294 373.05665225 -134.703125 359.5859375 C-146.3020419 346.52729296 -147.2330949 328.91738197 -147.25 312.375 C-147.25100708 311.68981293 -147.25201416 311.00462585 -147.25305176 310.29867554 C-147.24088562 297.99459982 -146.20514475 286.10928628 -144 274 C-143.79117188 272.79537109 -143.79117188 272.79537109 -143.578125 271.56640625 C-137.56988286 237.24154141 -126.5540094 203.85241598 -113.14794922 171.75146484 C-112.0444984 169.10665611 -110.95956532 166.45496926 -109.87890625 163.80078125 C-106.01507757 154.37699069 -101.8127472 145.20136903 -97.12011719 136.16210938 C-95.90504052 133.81670419 -94.70666181 131.46311276 -93.5078125 129.109375 C-83.97537505 110.5135677 -73.32101552 92.76389558 -61.75 75.375 C-61.33211212 74.74578644 -60.91422424 74.11657288 -60.4836731 73.46829224 C-54.91372691 65.10139031 -49.10887596 56.98526033 -43 49 C-42.10620328 47.81422968 -41.212858 46.62811867 -40.3203125 45.44140625 C-35.28134951 38.83337115 -30.056496 32.4332504 -24.65234375 26.12109375 C-22.21448781 23.26888131 -19.85267662 20.36052247 -17.5 17.4375 C-14.12387673 13.29823855 -10.64380035 9.27407913 -7.0625 5.3125 C-6.35287109 4.51767212 -6.35287109 4.51767212 -5.62890625 3.70678711 C-2.23702657 0 -2.23702657 0 0 0 Z " fill="#BA211A" transform="translate(167,63)"/>
<path d="M0 0 C22.11 0 44.22 0 67 0 C67 6.27 67 12.54 67 19 C59.74 19 52.48 19 45 19 C45 43.42 45 67.84 45 93 C48.38859016 89.61140984 51.33350402 86.14952941 54.25 82.375 C55.22747225 81.11948612 56.20533935 79.86427955 57.18359375 78.609375 C57.90071533 77.68801758 57.90071533 77.68801758 58.63232422 76.74804688 C61.0714724 73.6305351 63.56107328 70.55372966 66.05078125 67.4765625 C67.94453512 65.15452476 67.94453512 65.15452476 69.18383789 63.14355469 C73.31001213 56.95025166 78.19951679 54.19620019 84.8125 51 C85.77865234 50.51144531 86.74480469 50.02289063 87.74023438 49.51953125 C94.7546503 46 94.7546503 46 96 46 C98.04688101 62.51691112 98.04688101 62.51691112 93.7734375 68.75 C93.18820312 69.4925 92.60296875 70.235 92 71 C91.27039063 71.969375 90.54078125 72.93875 89.7890625 73.9375 C88.10572505 76.15888122 86.39604169 78.3570759 84.671875 80.546875 C82.0228924 83.93403562 79.5343801 87.42001363 77.0625 90.9375 C72.35784344 97.59856676 67.39155324 104.02517601 62.29199219 110.38769531 C61.09861044 111.87694192 59.91226371 113.37181862 58.7265625 114.8671875 C53.70532101 121.12108033 48.37566722 127.02394539 42.90234375 132.87890625 C40.40983837 135.54660888 37.97958948 138.26358861 35.5625 141 C26.72171873 150.83197194 17.4143479 159.83971644 7 168 C5.94363433 168.86775275 4.88901913 169.73763975 3.8359375 170.609375 C-19.93533158 190.08759797 -50.07254065 206.72093863 -81.4375 206.4375 C-82.61820068 206.42992676 -83.79890137 206.42235352 -85.01538086 206.41455078 C-101.78657986 206.09756737 -114.32062721 200.99243861 -126.65625 189.515625 C-130.42054316 185.47528367 -133.63186871 181.00128811 -136 176 C-135.505 175.01 -135.505 175.01 -135 174 C-134.09121094 174.60328125 -133.18242187 175.2065625 -132.24609375 175.828125 C-114.94622123 186.98355202 -96.41352334 189.95029429 -76.16723633 185.86645508 C-56.34405459 181.23775019 -38.8375911 171.5721084 -23 159 C-22.25878906 158.43925781 -21.51757812 157.87851562 -20.75390625 157.30078125 C-11.23927561 150.09061161 -2.02795976 142.31056052 6.2734375 133.7265625 C7.96341959 132.03658041 9.71867384 130.51892287 11.5625 129 C14.74134717 126.33664156 17.35370389 123.3809436 20.03125 120.22265625 C23.1399808 116.71299786 26.50843487 113.47186369 29.86328125 110.19921875 C32.1352713 107.99421935 32.1352713 107.99421935 34 105 C33.30132812 104.93941406 32.60265625 104.87882812 31.8828125 104.81640625 C30.51769531 104.69072266 30.51769531 104.69072266 29.125 104.5625 C27.76761719 104.44068359 27.76761719 104.44068359 26.3828125 104.31640625 C24 104 24 104 22 103 C22 75.28 22 47.56 22 19 C14.41 19 6.82 19 -1 19 C-1.0309375 14.854375 -1.0309375 14.854375 -1.0625 10.625 C-1.071604 9.75568848 -1.08070801 8.88637695 -1.09008789 7.99072266 C-1.11111111 2.22222222 -1.11111111 2.22222222 0 0 Z " fill="#BB211A" transform="translate(167,253)"/>
<path d="M0 0 C1.01819824 -0.00563965 2.03639648 -0.0112793 3.08544922 -0.01708984 C17.8133479 0.12468631 29.70817058 4.58364606 40.49609375 14.88671875 C62.50078073 38.56940612 63.5484824 72.83855073 62.75 103.3125 C61.10583767 143.53432484 49.52345471 183.29761024 34.1875 220.3125 C33.77024658 221.32086914 33.35299316 222.32923828 32.9230957 223.36816406 C30.01481485 230.18009257 30.01481485 230.18009257 27.75 231.3125 C29.30120628 223.12887726 31.20092153 215.04023688 33.125 206.9375 C35.90941305 195.10825884 38.60063429 183.27628619 40.75 171.3125 C40.88889648 170.5498584 41.02779297 169.7872168 41.17089844 169.00146484 C48.30822339 128.87290492 52.26541741 76.586863 27.8125 41.25 C20.3302269 31.70759817 11.79039043 25.86277878 -0.25 23.3125 C-11.90124745 22.52201652 -24.19542283 22.20651419 -35.25 26.3125 C-36.17941406 26.64121094 -37.10882813 26.96992188 -38.06640625 27.30859375 C-57.18847916 34.66715443 -72.93541208 47.00506646 -88.25 60.3125 C-89.49523437 61.38757812 -89.49523437 61.38757812 -90.765625 62.484375 C-101.3411825 71.79927002 -111.48797855 81.70489816 -120.21875 92.78125 C-122.26278671 95.32843421 -124.41145729 97.72439734 -126.625 100.125 C-131.13090509 105.07602916 -135.23323643 110.2838557 -139.33203125 115.5703125 C-141.36554138 118.19128112 -143.42731909 120.7865022 -145.51171875 123.3671875 C-146.05207764 124.03661377 -146.59243652 124.70604004 -147.14916992 125.39575195 C-148.18999408 126.68261507 -149.23300915 127.96771032 -150.27856445 129.25073242 C-152.38580284 131.86165043 -154.2673596 134.34212969 -155.96875 137.24609375 C-156.60296875 138.26896484 -156.60296875 138.26896484 -157.25 139.3125 C-157.91 139.3125 -158.57 139.3125 -159.25 139.3125 C-157.68915522 134.92210238 -155.41778348 131.10519836 -152.9375 127.1875 C-152.28152832 126.14686401 -152.28152832 126.14686401 -151.61230469 125.08520508 C-138.951638 105.16743717 -125.39309117 85.59245157 -109.69091797 67.94213867 C-108.67571026 66.79396662 -107.67039414 65.63701072 -106.67236328 64.47387695 C-96.06321968 52.14553159 -84.37886504 39.97030894 -71.25 30.3125 C-70.32719238 29.6316333 -70.32719238 29.6316333 -69.38574219 28.93701172 C-48.02623539 13.27099899 -27.31404783 0.14486917 0 0 Z " fill="#B92119" transform="translate(282.25,-0.3125)"/>
<path d="M0 0 C57 0 57 0 68.8125 10.5 C69.8953125 11.7375 69.8953125 11.7375 71 13 C72.0828125 14.2065625 72.0828125 14.2065625 73.1875 15.4375 C78.42355354 22.84019638 77.92430799 32.25996972 76.53515625 40.88671875 C74.43148727 49.01509652 70.24034945 53.77266472 63.25 58.25 C53.08036023 63.97614852 42.47973508 65.19078422 31 65.0625 C29.57291952 65.05099197 28.1458359 65.03986815 26.71875 65.02905273 C24.87796875 65.01467163 24.87796875 65.01467163 23 65 C23.00785522 66.45237061 23.00785522 66.45237061 23.01586914 67.93408203 C23.034047 71.54588894 23.04547854 75.15769184 23.05493164 78.76953125 C23.05994272 80.32910849 23.06675337 81.88868108 23.07543945 83.44824219 C23.08764686 85.69727736 23.09326068 87.9462501 23.09765625 90.1953125 C23.10281754 90.8861795 23.10797882 91.57704651 23.11329651 92.28884888 C23.11375529 96.29915055 22.7735266 100.06545295 22 104 C18.70835171 104.02895225 15.41673601 104.0467823 12.125 104.0625 C11.18785156 104.07087891 10.25070313 104.07925781 9.28515625 104.08789062 C7.94130859 104.09272461 7.94130859 104.09272461 6.5703125 104.09765625 C5.74289551 104.10289307 4.91547852 104.10812988 4.06298828 104.11352539 C2 104 2 104 0 103 C0 69.01 0 35.02 0 0 Z M23 19 C21.28765044 27.34770409 21.41566933 36.62995119 23 45 C29.5872559 48.29362795 40.19374366 45.88881755 47 44 C51.18285524 42.05796007 53.16487475 40.26985185 55 36.125 C55.93269632 33.15582472 55.98697038 31.92471776 55.4375 28.75 C52.68994116 23.49380047 49.55129282 21.45656262 44.07421875 19.59375 C37.56047496 17.72917551 29.54462976 16.81845675 23 19 Z " fill="#BA211A" transform="translate(83,253)"/>
<path d="M0 0 C0.71925996 -0.00226556 1.43851991 -0.00453111 2.17957562 -0.00686532 C4.60835509 -0.01323413 7.03707916 -0.01237409 9.46586609 -0.0115509 C11.2002164 -0.01454086 12.93456604 -0.01794301 14.66891479 -0.02172852 C19.3967868 -0.03059574 24.12464072 -0.03290795 28.85252023 -0.0335443 C32.80062781 -0.03449237 36.74873117 -0.03817004 40.69683713 -0.0417164 C50.02089062 -0.04987354 59.34493444 -0.05229973 68.66899109 -0.05158997 C78.27260224 -0.05099086 87.87615691 -0.0615063 97.47975379 -0.07733363 C105.72872821 -0.09044184 113.97768427 -0.09577239 122.22666901 -0.09513456 C127.15108513 -0.09488026 132.07545123 -0.09769295 136.99985695 -0.10831261 C141.64142614 -0.11804721 146.28289813 -0.11803624 150.9244709 -0.11079597 C152.62068068 -0.10975632 154.31689666 -0.11207589 156.01309586 -0.11815643 C180.56169971 -0.20039475 180.56169971 -0.20039475 185.89042664 4.50871277 C188.24337268 9.21460487 188.31413507 13.12320133 188.26542664 18.38371277 C188.2564032 19.64699402 188.24737976 20.91027527 188.23808289 22.21183777 C188.22068054 23.65816589 188.22068054 23.65816589 188.20292664 25.13371277 C186.05843337 24.6741785 184.31704321 24.19861206 182.40156841 23.10926151 C179.70541226 21.91296306 177.72139001 21.89026409 174.7746582 21.89993286 C173.67040497 21.89862869 172.56615173 21.89732452 171.42843628 21.89598083 C170.22004593 21.90474243 169.01165558 21.91350403 167.76664734 21.92253113 C166.48902527 21.92384537 165.2114032 21.92515961 163.89506531 21.92651367 C161.10848338 21.92945065 158.32201855 21.93871541 155.53547096 21.95281792 C151.07324024 21.97528263 146.611052 21.98321358 142.14877319 21.98931885 C134.21557391 22.00202554 126.28244829 22.02704364 118.34928894 22.05467224 C105.08070089 22.10073909 91.81207469 22.13365167 78.54342794 22.1569562 C77.01727312 22.15968916 75.49111859 22.1625854 73.96496439 22.16564512 C46.69988505 22.21994969 19.45904273 21.88854106 -7.79707336 21.13371277 C-7.82595483 17.8212309 -7.84383136 14.5087811 -7.85957336 11.19621277 C-7.86795227 10.25068542 -7.87633118 9.30515808 -7.88496399 8.33097839 C-7.88818665 7.4318573 -7.8914093 6.53273621 -7.89472961 5.60636902 C-7.89996643 4.77371521 -7.90520325 3.9410614 -7.91059875 3.08317566 C-7.65065732 -1.38054981 -3.60974825 0.00466728 0 0 Z " fill="#B9221A" transform="translate(7.7970733642578125,486.8662872314453)"/>
<path d="M0 0 C0.72145706 -0.00085442 1.44291412 -0.00170885 2.18623352 -0.00258917 C4.57982953 -0.00422331 6.97335391 0.00124323 9.36694336 0.00672913 C11.09223936 0.00701147 12.81753549 0.00685234 14.54283142 0.00628662 C19.20957483 0.00600049 23.87629237 0.01186742 28.54302979 0.01886058 C33.42639026 0.02512482 38.30975136 0.02570034 43.19311523 0.02688599 C52.43288038 0.02999026 61.67263365 0.03819144 70.91239357 0.04823548 C81.43474729 0.05942471 91.95710158 0.06491414 102.47945976 0.06993091 C124.11774234 0.08037482 145.75601356 0.0981589 167.39428711 0.12025452 C167.39428711 7.05025452 167.39428711 13.98025452 167.39428711 21.12025452 C165.15699829 21.12834137 162.91970947 21.13642822 160.61462402 21.14476013 C139.5435412 21.22185891 118.47252371 21.30981841 97.4015274 21.4077816 C86.56839914 21.45788579 75.73527837 21.504329 64.90209961 21.54212952 C55.45900107 21.5750889 46.01596099 21.61494199 36.572927 21.66304457 C31.57375185 21.68827027 26.57461528 21.71006318 21.57539368 21.72359848 C16.86732999 21.73645445 12.15939888 21.75854699 7.45140839 21.78763771 C5.72612188 21.79668586 4.00081405 21.80239725 2.27550507 21.80446815 C-0.08653944 21.80781029 -2.4482125 21.82333987 -4.81018066 21.84178162 C-5.48724863 21.83984688 -6.16431659 21.83791215 -6.86190176 21.83591878 C-11.76152441 21.89281075 -15.91758957 22.81814881 -20.60571289 24.12025452 C-21.93812599 24.45724744 -23.27122671 24.79156693 -24.60571289 25.12025452 C-24.71443256 22.57742217 -24.79333691 20.03930364 -24.85571289 17.49525452 C-24.88922852 16.78240295 -24.92274414 16.06955139 -24.95727539 15.33509827 C-25.0528489 10.1263419 -24.0409705 7.25645623 -20.60571289 3.12025452 C-14.66873052 -0.3429852 -6.68931868 -0.00480555 0 0 Z " fill="#B7211A" transform="translate(224.605712890625,486.87974548339844)"/>
<path d="M0 0 C22.11 0 44.22 0 67 0 C67 6.27 67 12.54 67 19 C59.74 19 52.48 19 45 19 C45.00523682 21.50384277 45.01047363 24.00768555 45.01586914 26.58740234 C45.03241384 34.84557867 45.04347477 43.10375571 45.05181217 51.3619442 C45.05703831 56.3705368 45.0641311 61.37911246 45.07543945 66.38769531 C45.08627786 71.21817822 45.09227887 76.04864482 45.09487724 80.87913895 C45.09672976 82.72518801 45.10034709 84.57123615 45.10573006 86.41727829 C45.11295312 88.99614161 45.1139904 91.57493685 45.11352539 94.15380859 C45.11712067 94.92272934 45.12071594 95.69165009 45.12442017 96.48387146 C45.11405216 101.77189568 45.11405216 101.77189568 44 104 C36.74 104 29.48 104 22 104 C22 75.95 22 47.9 22 19 C14.74 19 7.48 19 0 19 C0 12.73 0 6.46 0 0 Z " fill="#BB211A" transform="translate(321,253)"/>
<path d="M0 0 C0.99 0.495 0.99 0.495 2 1 C1.02566292 8.77845293 0.04659705 16.55630004 -0.93579102 24.33374023 C-1.26991275 26.98069979 -1.602255 29.62786569 -1.93383789 32.27514648 C-2.41006687 36.07572423 -2.89019101 39.87579243 -3.37109375 43.67578125 C-3.51904892 44.86335526 -3.66700409 46.05092926 -3.81944275 47.27449036 C-3.95951248 48.37540512 -4.09958221 49.47631989 -4.24389648 50.6105957 C-4.36603012 51.58100296 -4.48816376 52.55141022 -4.61399841 53.55122375 C-5 56 -5 56 -6 59 C1.92 59 9.84 59 18 59 C12.37731134 64.62268866 12.37731134 64.62268866 9.1875 66.97265625 C8.50429688 67.47990234 7.82109375 67.98714844 7.1171875 68.50976562 C6.06917969 69.27836914 6.06917969 69.27836914 5 70.0625 C3.60362681 71.09432189 2.20778129 72.12685831 0.8125 73.16015625 C0.15636719 73.64371582 -0.49976563 74.12727539 -1.17578125 74.62548828 C-2.775597 75.8309169 -4.32964471 77.09659557 -5.875 78.37109375 C-8 80 -8 80 -10 80 C-10 90.89 -10 101.78 -10 113 C-13.37293565 111.31353217 -14.93346994 110.30850283 -17.453125 107.7421875 C-18.071875 107.11699219 -18.690625 106.49179687 -19.328125 105.84765625 C-19.96234375 105.19667969 -20.5965625 104.54570312 -21.25 103.875 C-21.8996875 103.21628906 -22.549375 102.55757813 -23.21875 101.87890625 C-24.81711727 100.25703357 -26.41061897 98.6306719 -28 97 C-41.00478571 102.89330796 -53.7455163 109.25971889 -65.890625 116.79296875 C-68 118 -68 118 -70 118 C-68.38706861 113.30618843 -65.84599039 109.479101 -63.125 105.375 C-62.1442449 103.86737374 -61.16378791 102.35955352 -60.18359375 100.8515625 C-57.99118235 97.49668555 -55.76846792 94.16369078 -53.53515625 90.8359375 C-52.41878473 89.14094506 -51.30288789 87.44563988 -50.1875 85.75 C-49.64174316 84.95255371 -49.09598633 84.15510742 -48.53369141 83.33349609 C-45.6494817 79.17301193 -45.6494817 79.17301193 -45.35546875 74.34375 C-47.46306725 71.34004668 -49.71104271 68.50880834 -52.125 65.75 C-57 60.10950413 -57 60.10950413 -57 59 C-47.76 59 -38.52 59 -29 59 C-28.34 57.02 -27.68 55.04 -27 53 C-25.97929434 50.79268886 -24.91072585 48.60728397 -23.8125 46.4375 C-23.4815332 45.78201172 -23.15056641 45.12652344 -22.80957031 44.45117188 C-18.3582141 35.67286417 -13.8151611 26.94036832 -9.28051758 18.20483398 C-6.14248961 12.15808219 -3.0222723 6.10560061 0 0 Z " fill="#FCEF00" transform="translate(299,192)"/>
<path d="M0 0 C1.09726592 -0.00445668 1.09726592 -0.00445668 2.21669883 -0.0090034 C4.68693226 -0.0177283 7.15711745 -0.01920189 9.62736511 -0.02069092 C11.39127202 -0.02531677 13.15517792 -0.03034111 14.91908264 -0.03573608 C19.72752666 -0.04889289 24.53595669 -0.05531253 29.3444159 -0.05974674 C32.35014361 -0.0626749 35.35586747 -0.06677943 38.36159325 -0.07125092 C47.7695663 -0.08494043 57.17753061 -0.09459743 66.58551294 -0.09845281 C77.43652519 -0.10292385 88.28741086 -0.12042119 99.13838464 -0.1494534 C107.52748521 -0.17111647 115.91655032 -0.18115971 124.30567855 -0.18249393 C129.31396098 -0.18353953 134.32212467 -0.18939402 139.33037758 -0.20731354 C144.05077275 -0.22387205 148.77096099 -0.22591217 153.49137497 -0.21717453 C155.21661498 -0.21640804 156.94186646 -0.22069514 158.66707802 -0.23063278 C167.22587936 -0.27700788 175.22475897 -0.0769834 183.50956249 2.39906693 C189.83597384 4.22485718 189.83597384 4.22485718 196.02653503 2.76544189 C201.9537441 0.07239998 208.23113383 0.01563146 214.65042114 0.02018738 C215.74357576 0.01890574 215.74357576 0.01890574 216.8588143 0.01759821 C219.283155 0.01596058 221.70742539 0.02143648 224.13175964 0.0269165 C225.87661233 0.02719877 227.62146513 0.02703987 229.36631775 0.026474 C234.09096962 0.02618757 238.815596 0.03205932 243.54024196 0.03904796 C248.48233202 0.04530724 253.4244227 0.04588733 258.36651611 0.04707336 C267.71964558 0.05017909 277.07276333 0.05838225 286.42588764 0.06842285 C297.07638988 0.07960755 307.72689268 0.08510038 318.37739933 0.09011829 C340.28128443 0.10056549 362.18515899 0.11815025 384.08903503 0.14044189 C384.08903503 2.45044189 384.08903503 4.76044189 384.08903503 7.14044189 C383.16965936 7.14283025 382.25028368 7.1452186 381.30304813 7.14767933 C358.91798642 7.20685177 336.53303216 7.28241633 314.1480875 7.37615681 C303.32283057 7.42109524 292.4976064 7.46051446 281.67228699 7.48687744 C272.23538373 7.50987327 262.7985843 7.54328912 253.36176342 7.58914346 C248.36645057 7.6130542 243.37124041 7.63179709 238.37587166 7.6380558 C233.67021576 7.64411633 228.96482254 7.66415127 224.25926399 7.69471741 C222.53601406 7.7034821 220.81272978 7.70722347 219.08945847 7.70545006 C210.59977392 7.69947398 203.03170385 7.74416501 195.08903503 11.14044189 C194.09903503 11.47044189 193.10903503 11.80044189 192.08903503 12.14044189 C191.75903503 13.13044189 191.42903503 14.12044189 191.08903503 15.14044189 C190.47415222 14.71891846 189.85926941 14.29739502 189.22575378 13.86309814 C188.4175116 13.31524658 187.60926941 12.76739502 186.77653503 12.20294189 C185.57577332 11.38503174 185.57577332 11.38503174 184.35075378 10.55059814 C180.36571996 8.06597429 177.21553259 8.01829341 172.61227417 8.0269165 C171.62103372 8.02669322 171.62103372 8.02669322 170.60976821 8.02646542 C168.39017846 8.02716112 166.17067099 8.03500958 163.95109558 8.04278564 C162.36075385 8.04470469 160.77041152 8.04616855 159.18006897 8.04721069 C155.74901913 8.05037651 152.31799378 8.0566534 148.88695335 8.0652771 C143.44087281 8.07881687 137.99480041 8.08469909 132.54870605 8.0894165 C119.9792159 8.10146852 107.40974651 8.12337123 94.840271 8.14564514 C83.36931901 8.16591195 71.89837478 8.18398859 60.42740852 8.19386005 C55.9118361 8.19798709 51.39628817 8.20422229 46.88072777 8.21560669 C28.59056451 8.26129904 10.35317241 8.27967775 -7.91096497 7.14044189 C-7.95350853 5.14089443 -7.9517728 3.14002553 -7.91096497 1.14044189 C-5.99703348 -0.77348959 -2.53065936 0.0057105 0 0 Z " fill="#BA2018" transform="translate(7.9109649658203125,475.85955810546875)"/>
<path d="M0 0 C4.64626211 1.16156553 5.76105757 2.59460425 9 6 C9.87575684 6.69198486 10.75151367 7.38396973 11.65380859 8.09692383 C16.49732664 12.34504576 19.11731985 15.6047436 19.80566406 22.01318359 C20.10612267 27.91425518 19.87452828 33.78874563 19.625 39.6875 C19.57476418 41.75705353 19.52915005 43.82672468 19.48828125 45.89648438 C19.38736388 50.93629776 19.19181263 55.95959021 19 61 C12.73 61 6.46 61 0 61 C0 40.87 0 20.74 0 0 Z " fill="#BB211A" transform="translate(268,296)"/>
<path d="M0 0 C-2.6597037 5.59541438 -5.57874688 10.9238875 -11.375 13.5 C-12.24125 13.665 -13.1075 13.83 -14 14 C-3.97969543 0 -3.97969543 0 0 0 Z " fill="#A91B13" transform="translate(167,63)"/>
<path d="M0 0 C0.99 0.99 1.98 1.98 3 3 C2.43410156 3.69867188 1.86820313 4.39734375 1.28515625 5.1171875 C0.55167969 6.02726563 -0.18179688 6.93734375 -0.9375 7.875 C-1.66839844 8.77992188 -2.39929688 9.68484375 -3.15234375 10.6171875 C-5.0036252 12.84502747 -5.0036252 12.84502747 -6 15 C-6.66 15 -7.32 15 -8 15 C-6.62712658 11.30123909 -4.93644547 8.0485524 -2.875 4.6875 C-2.33617187 3.80449219 -1.79734375 2.92148438 -1.2421875 2.01171875 C-0.83226562 1.34785156 -0.42234375 0.68398437 0 0 Z " fill="#AB1B14" transform="translate(131,124)"/>
<path d="M0 0 C2 3 2 3 1.8125 5.3125 C0.87281219 8.42069813 -0.4707351 11.14093953 -2 14 C-3.21065165 10.36804504 -2.62784815 8.93468371 -1.5625 5.3125 C-1.27503906 4.31863281 -0.98757813 3.32476562 -0.69140625 2.30078125 C-0.46324219 1.54152344 -0.23507812 0.78226563 0 0 Z " fill="#B21D13" transform="translate(313,217)"/>
</svg>
